<?xml version="1.0" standalone="no"?>
<!DOCTYPE svg PUBLIC "-//W3C//DTD SVG 20010904//EN"
 "http://www.w3.org/TR/2001/REC-SVG-20010904/DTD/svg10.dtd">
<svg version="1.0" xmlns="http://www.w3.org/2000/svg"
 width="700.000000pt" height="700.000000pt" viewBox="0 0 700.000000 700.000000"
 preserveAspectRatio="xMidYMid meet">
<metadata>
Created by potrace 1.11, written by Peter Selinger 2001-2013
</metadata>
<g transform="translate(0.000000,700.000000) scale(0.100000,-0.100000)"
fill="#000000" stroke="none">
<path d="M3270 6376 c0 -2 23 -53 51 -112 204 -433 327 -803 439 -1319 11 -49
20 -94 20 -100 0 -5 -23 30 -51 80 -196 349 -427 587 -798 819 -48 31 -47 29
21 -65 157 -218 365 -709 423 -999 9 -47 18 -92 21 -101 3 -12 -13 -23 -71
-44 -42 -15 -74 -29 -73 -31 2 -1 53 10 113 27 127 34 295 53 426 48 l92 -4
-7 75 c-29 350 -138 875 -253 1219 -30 90 -53 165 -51 167 5 4 268 -186 378
-274 328 -262 589 -535 724 -759 120 -201 218 -470 268 -743 21 -114 23 -151
22 -435 -1 -193 2 -304 8 -295 5 8 43 73 85 144 52 89 78 125 83 115 30 -55
170 -470 170 -504 0 -10 -155 3 -255 21 -155 29 -281 71 -590 199 -329 137
-590 215 -714 215 -23 0 -41 4 -41 9 0 5 11 28 25 53 62 110 71 264 22 371
-64 141 -204 233 -386 256 -168 21 -320 -18 -571 -148 -408 -212 -528 -259
-870 -346 -168 -42 -348 -76 -649 -121 -129 -19 -237 -37 -240 -39 -2 -3 0
-37 7 -77 32 -210 218 -392 467 -456 106 -27 223 -40 498 -52 618 -28 1052
-129 1662 -385 424 -179 553 -212 792 -202 135 5 210 21 303 63 82 37 203 115
193 125 -4 4 -59 23 -121 42 -101 30 -110 35 -82 41 18 3 51 6 74 6 95 0 315
54 449 110 43 18 80 31 81 29 2 -2 9 -76 15 -164 47 -648 -184 -1251 -685
-1792 -82 -88 -227 -222 -370 -341 -69 -58 -1 -16 112 69 296 222 506 440 689
714 288 431 417 924 382 1460 l-8 130 31 25 c112 88 163 136 283 267 74 82
133 150 132 152 -2 2 -80 -37 -172 -87 -160 -86 -292 -140 -312 -128 -5 3 -12
23 -15 43 -13 73 -67 257 -112 382 -49 136 -177 411 -191 411 -5 0 -17 53 -27
118 -34 220 -99 439 -188 632 -194 418 -584 813 -1208 1222 -186 122 -450 277
-450 264z m175 -2102 c62 -21 90 -38 138 -83 64 -59 82 -103 81 -196 -1 -137
-46 -209 -209 -338 -91 -73 -97 -79 -65 -74 19 3 88 11 152 17 233 22 423 -19
798 -172 525 -215 680 -258 937 -261 l131 -2 -46 -27 c-69 -41 -235 -103 -337
-126 -193 -45 -359 -53 -545 -27 -137 20 -238 48 -438 125 -85 33 -157 59
-159 57 -8 -9 287 -252 346 -285 74 -41 187 -81 338 -119 63 -15 100 -29 92
-33 -32 -18 -140 -32 -234 -32 -189 0 -315 34 -662 178 -310 128 -452 181
-613 229 -385 114 -713 165 -1175 185 -374 16 -492 41 -637 138 l-38 25 43 27
c71 46 116 102 151 191 l14 36 123 23 c288 51 556 123 768 206 63 25 227 103
365 173 254 131 303 152 411 177 74 17 201 11 270 -12z"/>
<path d="M3010 4045 c-136 -29 -268 -104 -329 -187 l-32 -43 63 -3 c142 -7
345 74 468 188 l65 59 -85 0 c-47 0 -114 -7 -150 -14z"/>
<path d="M3235 3774 c-120 -83 -308 -113 -599 -96 -455 28 -594 26 -731 -12
-48 -14 -44 -14 115 -15 91 -1 251 -8 355 -17 276 -24 508 -22 610 5 101 27
207 79 265 130 55 49 51 51 -15 5z"/>
<path d="M1691 3576 c-9 -11 -10 -20 -1 -35 13 -26 46 -27 59 -3 20 38 -31 71
-58 38z"/>
<path d="M1563 3454 c-6 -17 6 -45 23 -51 21 -7 47 23 40 45 -9 27 -53 30 -63
6z"/>
<path d="M1790 3435 c-18 -22 -1 -50 31 -50 20 0 24 5 24 30 0 23 -5 31 -21
33 -11 2 -27 -4 -34 -13z"/>
<path d="M4040 5444 c197 -203 329 -392 465 -664 63 -126 160 -359 152 -366
-2 -2 -35 17 -73 42 -97 65 -187 109 -349 170 l-140 53 -33 142 c-18 78 -30
144 -28 147 13 12 117 -62 179 -128 71 -75 69 -61 -5 37 -56 74 -135 129 -211
147 -24 6 -28 4 -23 -11 2 -10 17 -102 32 -205 l28 -186 96 -38 c318 -124 456
-215 635 -417 48 -54 89 -96 91 -94 6 5 -105 355 -143 452 -76 194 -214 443
-330 595 -77 100 -193 226 -281 302 -152 133 -178 143 -62 22z"/>
<path d="M3536 2624 c-220 -202 -564 -354 -1015 -447 l-156 -32 65 -8 c79 -10
281 6 401 33 173 38 334 104 469 191 79 51 246 218 278 277 13 23 22 42 20 42
-2 -1 -30 -25 -62 -56z"/>
<path d="M4736 2275 c-53 -153 -162 -360 -255 -485 -85 -113 -228 -258 -356
-359 -46 -37 -69 -60 -55 -56 178 54 401 233 524 420 99 150 153 295 176 469
18 129 8 132 -34 11z"/>
</g>
</svg>
