<?xml version="1.0" encoding="utf-8"?>
<!-- Generator: Adobe Illustrator 17.1.0, SVG Export Plug-In . SVG Version: 6.00 Build 0)  -->
<!DOCTYPE svg PUBLIC "-//W3C//DTD SVG 1.1//EN" "http://www.w3.org/Graphics/SVG/1.1/DTD/svg11.dtd">
<svg version="1.1" xmlns="http://www.w3.org/2000/svg" xmlns:xlink="http://www.w3.org/1999/xlink" x="0px" y="0px"
	 viewBox="0 0 1000 300" enable-background="new 0 0 1000 300" xml:space="preserve">
<g id="Layer_2" display="none">
</g>
<g id="Layer_1">
	<g id="type2">
		<text transform="matrix(1 0 0 1 367.2682 172.5127)"><tspan x="0" y="0" fill="#131313" font-family="'Roboto-Black'" font-size="77.0383">phox</tspan><tspan x="169.8" y="0" fill="#8BC34A" font-family="'Roboto-Thin'" font-size="77.0383">designs</tspan></text>
		<g>
			<path fill="#8BC34A" d="M346.9,154c-1.9,1-3.9,1.8-6.1,2.2c0-0.2-0.1-0.4-0.1-0.6c-0.5-2.5-1.2-4.9-1.9-7.3
				c-0.7-2.4-1.5-4.8-2.5-7.2c-0.5-1.2-0.9-2.3-1.5-3.5c-0.3-0.6-0.5-1.2-0.8-1.7l-0.4-0.9l-0.2-0.4l-0.2-0.5l-2-3.9l-0.3,0.5
				c-0.1-1.1-0.2-2.2-0.4-3.2c-0.6-4-1.5-7.9-2.7-11.8c-0.6-1.9-1.3-3.8-2.1-5.7c-0.8-1.9-1.6-3.7-2.6-5.5l-0.4-0.7l-0.4-0.7
				l-0.4-0.7c-0.1-0.2-0.3-0.5-0.4-0.7l-0.8-1.2l-0.2-0.3l-0.2-0.3l-0.4-0.6c-1.1-1.7-2.4-3.3-3.6-4.9c-1.3-1.6-2.6-3-4-4.5
				c-1.4-1.4-2.8-2.8-4.3-4.2c-2.9-2.7-5.9-5.2-9-7.6c-3.1-2.4-6.3-4.7-9.6-6.9c-1.6-1.1-3.3-2.2-4.9-3.2c-0.8-0.5-1.7-1-2.5-1.5
				c-0.8-0.5-1.7-1-2.6-1.5l-5.8-3.3l2.8,6c0.2,0.4,0.4,0.9,0.6,1.4l0.6,1.4c0.4,1,0.8,1.9,1.2,2.9c0.4,1,0.8,2,1.2,2.9
				c0.4,1,0.8,2,1.1,3c0.4,1,0.7,2,1.1,3c0.3,1,0.7,2,1,3l0.5,1.5l0.5,1.5c0.3,1,0.6,2,0.9,3.1l0.1,0.4l0.1,0.4l0.2,0.8l0.4,1.5
				c0.3,1,0.5,2.1,0.8,3.1c0.3,1,0.5,2.1,0.8,3.1c0.2,1,0.5,2.1,0.7,3.1c0.2,1,0.6,2.1,0.8,3.1c0.2,0.9,0.7,1.9,0.7,2.8v0
				c0,0-0.1,0.1-0.1,0.1c-1.6-3.4-4.1-7.7-7.7-12.5c-7.7-10.1-19.9-16.8-20.1-17c0.2,0.2,5.4,6,10.4,18.7c3.9,8.7,5.2,16.7,5.4,18.4
				c-0.6,0.2-1.3,0.4-1.9,0.7c-1.7,0.6-3.3,1.3-5,2c0.4-0.1,0.8-0.3,1.3-0.4l1.3-0.4c0.8-0.3,1.7-0.5,2.6-0.8
				c0.9-0.2,1.7-0.5,2.6-0.7c0.4-0.1,0.9-0.2,1.3-0.3c0.4-0.1,0.9-0.2,1.3-0.2l0.6-0.1l0.6-0.1l0.2,0l0.2,0l0.3,0l0.7,0
				c0.4,0,0.9-0.1,1.3-0.1c0.4,0,0.9,0,1.3,0c0.4,0,0.9,0,1.3,0c0.4,0,0.9,0,1.3,0c0.4,0,0.9,0,1.3,0c0.4,0,0.9,0,1.3,0l1,0l-0.1-1
				c-0.1-1.1-0.2-2.1-0.3-3.2c-0.1-1.1-0.3-2.1-0.4-3.2c-0.1-1.1-0.3-2.1-0.5-3.2c-0.2-1.1-0.3-2.1-0.5-3.2
				c-0.2-1.1-0.4-2.1-0.5-3.2c-0.2-1.1-0.4-2.1-0.6-3.2c-0.2-1.1-0.4-2.1-0.6-3.2l-0.3-1.6l-0.2-0.8l-0.1-0.4l-0.1-0.4
				c-0.3-1-0.5-2.1-0.8-3.1l-0.4-1.6l-0.4-1.6c-0.3-1-0.6-2.1-0.9-3.1c-0.3-1-0.6-2.1-1-3.1c-0.3-1-0.7-2.1-1-3.1
				c-0.3-1-0.7-1.9-1-2.9c1.4,0.9,2.7,1.9,4.1,2.8c3.1,2.2,6.2,4.5,9.1,6.9c1.5,1.2,3,2.4,4.4,3.7c1.4,1.2,2.8,2.5,4.2,3.8
				c1.4,1.3,2.7,2.7,4,4c1.3,1.4,2.5,2.8,3.7,4.2c1.2,1.5,2.3,2.9,3.3,4.5l0.4,0.6l0.2,0.3l0.2,0.3l0.7,1.2c0.1,0.2,0.2,0.4,0.3,0.6
				l0.3,0.6l0.3,0.6l0.3,0.6c0.9,1.6,1.6,3.3,2.4,5c0.7,1.7,1.4,3.5,1.9,5.2c1.1,3.5,2,7.2,2.5,10.9c0.3,1.8,0.5,3.7,0.6,5.6
				c0.1,0.9,0.1,1.9,0.1,2.8c0,0.5,0,0.9,0,1.4l0,0.7l0,0.3l0,0.3l-0.5,10.7l5.3-9.1l0.1-0.1c0.3,0.8,0.7,1.5,1,2.3
				c0.9,2.2,1.7,4.5,2.5,6.7c0.7,2.3,1.4,4.6,2,6.9c0,0,0,0,0,0.1c-0.3,0-0.5,0-0.8,0c-5.7,0-12.2-1.5-19.9-4.7
				c-1.3-0.5-2.7-1.1-4-1.7c-8-3.4-16.2-6.9-24.5-7.2c3-4.3,3.6-9.9,1.2-14.2c-2.5-4.3-7.7-6.9-13.8-6.9c-1.5,0-3.1,0.2-4.6,0.5
				c-4.8,1.1-9,3.4-13.1,5.7c-1.3,0.7-2.7,1.5-4.1,2.2c-14,7.1-29.9,9.4-45.3,11.5l-1.7,0.2l0.1,1.7c0.4,6.9,6.4,12.1,12.2,14.1
				c5,1.8,10.3,1.9,15.4,2c0.9,0,1.7,0,2.6,0.1c15.7,0.6,31,3.9,45.5,9.8c1.5,0.6,3.1,1.3,4.6,1.9c4.9,2.1,9.9,4.3,15.3,5.5
				c2.6,0.6,5.2,0.9,7.8,0.9c5.3,0,10.1-1.3,13.8-3.9l3-2.1l-3.5-1.2c-1.5-0.5-3.1-0.9-4.7-1.3c7.2-0.1,14-1.8,20-4.7
				c0.3,1.9,0.4,3.8,0.6,5.7c0.1,2.4,0.2,4.8,0.1,7.2c-0.1,1.2-0.1,2.4-0.3,3.6c-0.1,0.6-0.1,1.2-0.2,1.8c-0.1,0.6-0.2,1.2-0.2,1.8
				c-0.3,2.4-0.8,4.7-1.5,7c-0.6,2.3-1.3,4.6-2.2,6.9c-0.9,2.2-1.9,4.5-2.9,6.6c-1.1,2.2-2.3,4.3-3.6,6.3c-1.3,2-2.7,4.1-4.2,6
				c-0.7,1-1.5,1.9-2.3,2.9c-0.8,0.9-1.6,1.9-2.4,2.8c-1.6,1.8-3.3,3.6-5.1,5.3c-1.8,1.7-3.6,3.3-5.5,4.9c-0.9,0.8-1.9,1.5-2.9,2.3
				c-1,0.7-2,1.5-3,2.1c2.2-1.2,4.2-2.5,6.2-4c2-1.4,4-2.9,5.9-4.5c1.9-1.6,3.7-3.3,5.5-5c1.8-1.7,3.5-3.6,5.1-5.5
				c1.6-1.9,3.1-3.9,4.6-5.9c1.4-2,2.8-4.2,4-6.3c2.5-4.4,4.5-9,6-13.8c0.7-2.4,1.3-4.9,1.8-7.4c0.1-0.6,0.2-1.3,0.3-1.9l0.3-1.8
				c0.2-1.3,0.3-2.5,0.4-3.8c0.2-2.5,0.3-5.1,0.2-7.6c-0.1-2.5-0.3-5.1-0.6-7.6c0-0.1,0-0.1,0-0.2c2.7-1.7,5.2-3.8,7.2-6.1l7.1-7.9
				L346.9,154z M337.3,161.4c-5.9,3.1-12.9,4.8-20.3,4.8c-5.4,0-10.7-0.9-15.3-2.7l-9.6-3.7l7.8,6.8c4.3,3.8,10.3,5.2,15.6,6.4
				c0.6,0.1,1.1,0.3,1.6,0.4c-2.3,0.8-4.9,1.3-7.8,1.3c-2.3,0-4.6-0.3-7-0.8c-5-1.1-9.9-3.2-14.6-5.3c-1.5-0.7-3.1-1.3-4.6-2
				c-14.9-6.1-30.6-9.5-46.8-10.1c-0.9,0-1.8-0.1-2.6-0.1c-4.8-0.1-9.8-0.3-14.3-1.8c-1.9-0.7-3.9-1.7-5.5-3.1
				c0.4-0.1,0.7-0.3,1-0.5c2.6-1.5,4.6-4.2,5.2-7.2c11.7-1.9,23.5-4.6,34.3-10.1c1.4-0.7,2.8-1.5,4.2-2.2c4.1-2.2,7.9-4.3,12.2-5.3
				c1.2-0.3,2.5-0.4,3.8-0.4c4.8,0,8.8,1.9,10.6,5.1c2.2,3.9,0.7,9.6-3.5,12.9l-5.1,4l6.4-0.7c0.9-0.1,1.8-0.2,2.8-0.2
				c7.9,0,16.3,3.5,24.4,7c1.3,0.6,2.7,1.1,4,1.7c8.2,3.4,15.1,5,21.3,5c0.5,0,1,0,1.6,0c0.9,0,1.7-0.1,2.5-0.2
				C338.8,160.5,338.1,161,337.3,161.4z"/>
			<path fill="#8BC34A" d="M273.2,132.8c-3.5-0.1-7.1,0.2-10.4,1.4c-3.3,1.2-6.3,3.4-8,6.5C261.8,141.1,268.8,138.1,273.2,132.8z"/>
			<circle fill="#8BC34A" cx="222.8" cy="151.9" r="1.1"/>
			<circle fill="#8BC34A" cx="226.7" cy="148.3" r="1.1"/>
			<circle fill="#8BC34A" cx="229.7" cy="152.6" r="1.1"/>
			<path fill="#8BC34A" d="M274.8,140.2c-0.2,0.3-0.6,0.6-1.1,1c-0.5,0.4-1.2,0.8-2,1.2c-0.4,0.2-0.8,0.4-1.3,0.6
				c-0.2,0.1-0.5,0.2-0.7,0.3c-0.2,0.1-0.5,0.2-0.8,0.2c-0.5,0.2-1.1,0.3-1.6,0.4c-0.6,0.1-1.2,0.3-1.8,0.4
				c-1.2,0.2-2.5,0.3-3.9,0.4c-1.3,0.1-2.7,0-4.2,0c-0.7,0-1.4-0.1-2.2-0.1c-0.7,0-1.5-0.1-2.2-0.1c-1.5-0.1-2.9-0.2-4.4-0.3
				c-1.4-0.1-2.9-0.2-4.3-0.2c-1.4,0-2.7-0.1-4,0c-0.6,0-1.3,0-1.9,0.1c-0.6,0-1.2,0.1-1.7,0.1c-0.3,0-0.5,0.1-0.8,0.1
				c-0.3,0-0.5,0.1-0.8,0.1c-0.5,0.1-1,0.1-1.4,0.2c-0.4,0.1-0.9,0.2-1.2,0.2c-0.4,0.1-0.7,0.2-1,0.3c-0.6,0.1-1.1,0.3-1.4,0.4
				c-0.3,0.1-0.5,0.2-0.5,0.2s0.2,0,0.5-0.1c0.2,0,0.4,0,0.6-0.1c0.3,0,0.5,0,0.9-0.1c0.3,0,0.7-0.1,1.1-0.1c0.4,0,0.8-0.1,1.2-0.1
				c0.4,0,0.9,0,1.4,0c0.2,0,0.5,0,0.8,0c0.3,0,0.5,0,0.8,0c1.1,0,2.3,0.1,3.5,0.1c1.3,0.1,2.6,0.2,3.9,0.3c0.7,0.1,1.4,0.1,2.1,0.2
				c0.7,0.1,1.4,0.1,2.1,0.2c1.5,0.1,2.9,0.2,4.4,0.3c0.7,0,1.5,0.1,2.2,0.1c0.7,0,1.5,0.1,2.2,0.1c1.5,0,2.9,0,4.3-0.2
				c1.4-0.1,2.8-0.4,4-0.8c1.3-0.3,2.4-0.8,3.4-1.3c0.3-0.1,0.5-0.2,0.7-0.4c0.2-0.1,0.5-0.2,0.7-0.4c0.5-0.2,0.9-0.5,1.3-0.7
				c0.8-0.5,1.4-1,1.9-1.5C274.3,141,274.7,140.6,274.8,140.2c0.2-0.1,0.2-0.2,0.2-0.3c0-0.1,0-0.1,0-0.1s0,0-0.1,0.1
				C274.9,140,274.9,140.1,274.8,140.2z"/>
			<path fill="#8BC34A" d="M298.3,105.5c0.2,0.1,0.4,0.2,0.7,0.3c0.2,0.1,0.4,0.2,0.6,0.4c0.2,0.1,0.4,0.3,0.6,0.4
				c0.2,0.1,0.4,0.3,0.6,0.5c0.2,0.2,0.4,0.3,0.6,0.5c0.2,0.2,0.4,0.3,0.6,0.5c0.2,0.2,0.4,0.4,0.5,0.5c0.2,0.2,0.4,0.4,0.5,0.6
				c0.2,0.2,0.3,0.4,0.5,0.6c0.2,0.2,0.3,0.4,0.5,0.6c0.2,0.2,0.3,0.4,0.5,0.6l1,1.2c-0.3-0.5-0.5-0.9-0.8-1.3
				c-0.1-0.2-0.3-0.4-0.4-0.7c-0.1-0.2-0.3-0.4-0.4-0.7c-0.1-0.2-0.3-0.4-0.4-0.6c-0.1-0.2-0.3-0.4-0.5-0.6
				c-0.2-0.2-0.3-0.4-0.5-0.6c-0.2-0.2-0.3-0.4-0.5-0.6c-0.2-0.2-0.4-0.4-0.5-0.6c-0.2-0.2-0.4-0.4-0.6-0.5
				c-0.2-0.2-0.4-0.3-0.6-0.5c-0.2-0.2-0.4-0.3-0.7-0.5c-0.2-0.2-0.5-0.3-0.7-0.4c-0.2-0.1-0.5-0.2-0.7-0.4
				c-0.3-0.1-0.5-0.2-0.8-0.3l-0.8-0.2l-1-0.3l0.2,1.1l0.4,2.7l0.4,2.7c0.3,1.8,0.6,3.6,0.9,5.4l0.1,0.6l0.6,0.2
				c1,0.4,1.9,0.8,2.9,1.1c0.5,0.2,1,0.4,1.4,0.6c0.5,0.2,1,0.4,1.4,0.6c0.5,0.2,0.9,0.4,1.4,0.6c0.5,0.2,0.9,0.4,1.4,0.6
				c0.5,0.2,0.9,0.4,1.4,0.7c0.5,0.2,0.9,0.5,1.3,0.7c0.4,0.2,0.9,0.5,1.3,0.7c0.4,0.2,0.9,0.5,1.3,0.8c0.2,0.1,0.4,0.3,0.6,0.4
				l0.6,0.4c0.4,0.3,0.8,0.6,1.2,0.9c0.4,0.3,0.8,0.6,1.1,1c0.4,0.3,0.7,0.7,1.1,1l1,1.1l1,1.1l4.2,4.7l-1.8-6l-0.9-3l-1-2.9
				l-1.1-2.9c-0.4-1-0.8-1.9-1.2-2.9l-1.3-2.8c-0.5-0.9-1-1.8-1.4-2.8l-1.5-2.7l-1.7-2.6c-0.6-0.9-1.2-1.7-1.8-2.6l-1.9-2.5l-2-2.4
				l-2.1-2.3l-2.2-2.2c-0.8-0.7-1.5-1.4-2.3-2.1l-2.4-1.9c-0.8-0.6-1.7-1.2-2.5-1.8c0.7,0.7,1.5,1.4,2.2,2.1l2.1,2.2
				c0.7,0.8,1.4,1.5,2,2.3l2,2.3L304,98l1.8,2.5l1.7,2.5l1.6,2.6l1.5,2.6l1.4,2.7l1.3,2.7l1.2,2.8l1.1,2.8l1,2.8l0.2,0.6
				c-0.2-0.2-0.5-0.4-0.7-0.6c-0.4-0.3-0.9-0.7-1.3-1l-0.7-0.5c-0.2-0.2-0.5-0.3-0.7-0.4c-0.5-0.3-0.9-0.6-1.4-0.8
				c-0.5-0.3-0.9-0.5-1.4-0.8c-0.5-0.2-1-0.5-1.4-0.7c-0.5-0.2-1-0.5-1.5-0.7c-0.5-0.2-1-0.4-1.5-0.6c-0.5-0.2-1-0.4-1.5-0.6
				c-0.5-0.2-1-0.4-1.5-0.5c-0.5-0.2-1-0.4-1.5-0.5c-0.8-0.3-1.6-0.5-2.4-0.8c-0.3-1.6-0.7-3.2-1.1-4.7l-0.6-2.7l-0.4-1.6l0.3,0.1
				C297.8,105.3,298.1,105.4,298.3,105.5z"/>
			<path fill="#8BC34A" d="M283,176c-0.4,0.4-1,0.9-1.6,1.4c-0.6,0.5-1.3,1.1-2.1,1.7c-0.2,0.2-0.4,0.3-0.6,0.5
				c-0.2,0.2-0.4,0.3-0.7,0.4c-0.4,0.3-0.9,0.6-1.4,0.9c-0.5,0.3-1,0.6-1.5,0.9c-0.5,0.3-1,0.6-1.6,0.9c-0.5,0.3-1.1,0.6-1.7,0.9
				c-0.3,0.1-0.6,0.3-0.9,0.4c-0.3,0.1-0.6,0.3-0.9,0.4c-0.3,0.1-0.6,0.3-0.9,0.4c-0.3,0.1-0.6,0.3-0.9,0.4
				c-0.6,0.3-1.2,0.5-1.8,0.7c-0.6,0.2-1.2,0.5-1.9,0.7c-0.6,0.2-1.2,0.4-1.9,0.6c-1.2,0.4-2.5,0.8-3.7,1.1
				c-0.6,0.2-1.2,0.3-1.8,0.5c-0.6,0.1-1.2,0.3-1.7,0.4c-0.6,0.1-1.1,0.3-1.6,0.4c-0.5,0.1-1,0.2-1.5,0.4c-2,0.4-3.6,0.8-4.8,1
				c-0.6,0.1-1,0.2-1.4,0.3c-0.3,0.1-0.5,0.1-0.5,0.1s0.2,0,0.5,0.1c0.3,0,0.8,0.1,1.4,0.1c0.6,0,1.3,0.1,2.2,0.1c0.4,0,0.9,0,1.3,0
				c0.5,0,1,0,1.5,0c1,0,2.1-0.1,3.3-0.3c0.6-0.1,1.2-0.2,1.8-0.2c0.3-0.1,0.6-0.1,0.9-0.2c0.3-0.1,0.6-0.1,0.9-0.2
				c0.3-0.1,0.6-0.1,1-0.2c0.3-0.1,0.6-0.2,1-0.2c0.3-0.1,0.7-0.2,1-0.2c0.3-0.1,0.7-0.2,1-0.3c0.3-0.1,0.7-0.2,1-0.3
				c0.3-0.1,0.7-0.2,1-0.3c0.7-0.2,1.3-0.5,2-0.7c0.6-0.3,1.3-0.5,1.9-0.8c0.3-0.1,0.6-0.3,0.9-0.4c0.3-0.1,0.6-0.3,0.9-0.5
				c0.3-0.2,0.6-0.3,0.9-0.5c0.3-0.2,0.6-0.3,0.9-0.5c0.6-0.3,1.1-0.7,1.7-1c0.6-0.3,1.1-0.7,1.6-1.1c0.3-0.2,0.5-0.4,0.7-0.6
				c0.2-0.2,0.5-0.4,0.7-0.6c0.5-0.4,0.9-0.8,1.3-1.2c0.2-0.2,0.4-0.4,0.6-0.6c0.2-0.2,0.4-0.4,0.6-0.6c0.7-0.7,1.3-1.5,1.8-2.2
				c0.3-0.3,0.5-0.7,0.7-1c0.2-0.3,0.4-0.6,0.6-0.8c0.3-0.5,0.5-0.9,0.7-1.2c0.2-0.3,0.2-0.4,0.2-0.4s-0.1,0.1-0.4,0.3
				C283.8,175.2,283.4,175.6,283,176z"/>
			<path fill="#8BC34A" d="M304.6,211.8c0.2-0.1,0.4-0.3,0.7-0.4c0.2-0.2,0.4-0.3,0.7-0.5c0.5-0.3,0.9-0.7,1.4-1
				c0.2-0.2,0.5-0.4,0.7-0.6c0.2-0.2,0.5-0.4,0.7-0.6c0.2-0.2,0.5-0.4,0.7-0.6c0.1-0.1,0.2-0.2,0.3-0.3l0.3-0.3
				c0.4-0.4,0.9-0.9,1.3-1.4c0.4-0.5,0.9-1,1.3-1.5c0.2-0.3,0.4-0.5,0.6-0.8l0.6-0.8c0.8-1.1,1.5-2.2,2.1-3.3
				c0.3-0.6,0.6-1.1,0.9-1.7c0.1-0.3,0.3-0.6,0.4-0.8c0.1-0.3,0.2-0.6,0.4-0.8c0.5-1.1,0.9-2.2,1.2-3.3c0.3-1.1,0.6-2.1,0.8-3
				c0.2-1,0.3-1.8,0.4-2.6c0.1-0.8,0.1-1.5,0.1-2c0-0.6,0-1,0-1.3c0-0.3,0-0.5,0-0.5s0,0.2-0.1,0.4c-0.1,0.3-0.2,0.7-0.4,1.2
				c-0.2,0.5-0.4,1.2-0.6,1.9c-0.2,0.7-0.5,1.5-0.9,2.4c-0.2,0.4-0.3,0.9-0.6,1.3c-0.2,0.5-0.4,0.9-0.6,1.4c-0.4,1-0.9,2-1.5,3
				c-0.3,0.5-0.6,1-0.8,1.5c-0.1,0.3-0.3,0.5-0.5,0.8c-0.2,0.3-0.3,0.5-0.5,0.8c-0.6,1-1.3,2-2,3l-0.5,0.7c-0.2,0.2-0.4,0.5-0.6,0.7
				c-0.2,0.2-0.4,0.5-0.6,0.7c-0.2,0.2-0.4,0.5-0.6,0.7c-0.8,0.9-1.6,1.8-2.4,2.6c-0.4,0.4-0.8,0.8-1.2,1.2
				c-0.2,0.2-0.4,0.4-0.6,0.6c-0.2,0.2-0.4,0.4-0.6,0.5c-0.2,0.2-0.4,0.4-0.6,0.5c-0.2,0.2-0.4,0.3-0.6,0.5c-0.4,0.3-0.7,0.7-1.1,1
				c-0.4,0.3-0.7,0.6-1,0.9c-0.2,0.1-0.3,0.3-0.5,0.4c-0.2,0.1-0.3,0.2-0.5,0.4c-0.6,0.5-1.1,0.9-1.6,1.2c-0.4,0.3-0.8,0.6-1,0.8
				c-0.2,0.2-0.4,0.3-0.4,0.3s0.2-0.1,0.4-0.1c0.3-0.1,0.7-0.2,1.2-0.4c0.1,0,0.3-0.1,0.4-0.2c0.1-0.1,0.3-0.1,0.4-0.2
				c0.3-0.1,0.6-0.3,1-0.4c0.2-0.1,0.4-0.2,0.6-0.3c0.2-0.1,0.4-0.2,0.6-0.3c0.4-0.2,0.8-0.4,1.2-0.7
				C303.7,212.4,304.2,212.1,304.6,211.8z"/>
		</g>
	</g>
</g>
</svg>
