<?xml version="1.0" encoding="utf-8"?>
<!-- Generator: Adobe Illustrator 17.1.0, SVG Export Plug-In . SVG Version: 6.00 Build 0)  -->
<!DOCTYPE svg PUBLIC "-//W3C//DTD SVG 1.1//EN" "http://www.w3.org/Graphics/SVG/1.1/DTD/svg11.dtd">
<svg version="1.1" xmlns="http://www.w3.org/2000/svg" xmlns:xlink="http://www.w3.org/1999/xlink" x="0px" y="0px"
	 viewBox="0 0 1000 300" enable-background="new 0 0 1000 300" xml:space="preserve">
<g id="Layer_2" display="none">
	<rect x="-1024" y="-2" display="inline" fill="#1E1E1E" width="2095" height="661"/>
</g>
<g id="Layer_1">
	<g id="type2_grad">
		<g>
			<path fill="#FFFFFF" d="M392.7,131.1c-4,0-7.2,1.6-9.6,4.6l-0.4-3.7H371v56h13v-18.8c2,2.7,5.3,4.1,9,4.1c4.8,0,8.8-1.9,11.6-5.7
				c2.8-3.8,4.4-8.8,4.4-15.1v-0.6c0-6.5-1.6-11.6-4.4-15.3C401.8,132.9,397.8,131.1,392.7,131.1z M396,153c0,7-2,10.5-6.1,10.5
				c-3,0-4.9-1.1-5.9-3.4v-16c1-2.2,2.8-3.2,5.8-3.2c4.2,0,6.2,3.6,6.2,10.8V153z"/>
			<path fill="#FFFFFF" d="M437.2,131.1c-4.2,0-8.2,1.7-10.2,5.1V115h-13v58h13v-29.7c1-1.7,2.7-2.5,5.3-2.5c2.1,0,3.5,0.5,4.4,1.5
				s1.3,2.6,1.3,4.8V173h13v-26.2c0-5.2-1.3-9.1-3.6-11.8C445.1,132.4,441.7,131.1,437.2,131.1z"/>
			<path fill="#FFFFFF" d="M475.7,131.1c-4,0-7.5,0.9-10.4,2.6c-3,1.7-5.2,4.1-6.8,7.3c-1.6,3.2-2.4,6.8-2.4,10.9l0,2.1
				c0.3,5.9,2.2,10.7,5.7,14.1c3.5,3.5,8.2,5.2,14,5.2c6,0,10.6-1.9,14.1-5.6c3.5-3.7,5.1-8.8,5.1-15.1v-0.5
				c0-6.5-1.6-11.6-5.1-15.4C486.4,132.9,481.8,131.1,475.7,131.1z M483,153.1c0,6.9-2.6,10.4-7.1,10.4c-2.3,0-4.1-0.9-5.3-2.6
				c-1.2-1.8-1.8-4.5-1.8-8.3l0-2.3c0.4-6.3,2.8-9.4,7-9.4c4.7,0,7.1,3.6,7.1,10.9V153.1z"/>
			<polygon fill="#FFFFFF" points="525,152 535.7,132 522.5,132 516.6,143.2 510.9,132 497.6,132 508.3,152 497,173 510.3,173 
				516.6,161 523,173 536.2,173 			"/>
		</g>
		<g>
			<linearGradient id="SVGID_1_" gradientUnits="userSpaceOnUse" x1="541" y1="144.1323" x2="572" y2="144.1323">
				<stop  offset="0" style="stop-color:#C6F58E"/>
				<stop  offset="1" style="stop-color:#8BC34A"/>
			</linearGradient>
			<path fill="url(#SVGID_1_)" d="M570,139.3c-1-2.7-3.4-4.8-5.7-6.2c-2.3-1.4-5.1-2.1-8.1-2.1c-4.8,0-8.4,1.8-11.2,5.5
				c-2.7,3.6-4,8.7-4,15.2v0.5c0,6.5,1.3,11.6,4,15.4c2.7,3.7,6.4,5.6,11.1,5.6c3.1,0,5.8-0.6,8.2-1.9c2.4-1.3,4.7-3.1,5.7-5.4v7h2
				v-58h-2V139.3z M570,162.4c-1,2.9-2.9,5.1-5.3,6.6c-2.4,1.5-5.3,2.2-8.6,2.2c-4.2,0-7.4-1.7-9.7-5c-2.3-3.3-3.4-7.9-3.4-13.7
				c0-6.4,1.2-11.2,3.5-14.5c2.3-3.3,5.6-4.9,9.7-4.9c6.9,0,11.9,3.4,13.9,10.3V162.4z"/>
			<linearGradient id="SVGID_2_" gradientUnits="userSpaceOnUse" x1="582" y1="152.1621" x2="614" y2="152.1621">
				<stop  offset="0" style="stop-color:#C6F58E"/>
				<stop  offset="1" style="stop-color:#8BC34A"/>
			</linearGradient>
			<path fill="url(#SVGID_2_)" d="M598.8,131.1c-3.1,0-6,0.9-8.6,2.6s-4.5,4.2-6,7.3c-1.5,3.1-2.1,6.6-2.1,10.3v1.7
				c0,3.8,0.6,7.2,2.2,10.3c1.6,3.1,3.6,5.5,6.4,7.3c2.7,1.8,5.7,2.7,9,2.7c6,0,10.4-2.2,13.5-6.6l-1.4-1c-1.5,1.9-3.2,3.3-5.1,4.2
				c-1.9,0.9-4.2,1.4-7,1.4c-2.9,0-5.5-0.8-8-2.4c-2.4-1.6-4.2-3.8-5.6-6.6c-1.4-2.8-1.9-5.9-1.9-9.2v-2h30v-2.3
				c0-5.3-1.3-9.5-4.2-12.8C606.9,132.7,603.3,131.1,598.8,131.1z M612,148.3v0.7h-28.2c0.5-5,2.1-8.4,4.9-11.4
				c2.8-2.9,6.1-4.5,10.1-4.5c2.5,0,4.8,0.6,6.9,1.9c2,1.3,3.6,3.1,4.7,5.5S612,145.5,612,148.3z"/>
			<linearGradient id="SVGID_3_" gradientUnits="userSpaceOnUse" x1="621.291" y1="152.1807" x2="650.8203" y2="152.1807">
				<stop  offset="0" style="stop-color:#C6F58E"/>
				<stop  offset="1" style="stop-color:#8BC34A"/>
			</linearGradient>
			<path fill="url(#SVGID_3_)" d="M645.3,153.6c-2-1.1-4.6-2-8-2.7c-3.4-0.8-5.9-1.6-7.7-2.4c-1.8-0.8-3-1.8-3.8-2.8
				c-0.8-1-1.2-2.5-1.2-4.3c0-2.3,1-4.3,3.1-5.8c2.1-1.6,4.9-2.3,8.5-2.3c3.7,0,6.7,1.1,9,2.9c2.3,1.8,3.5,4,3.5,7h2.1
				c0-4-1.3-6.5-4-8.6s-6.2-3.2-10.6-3.2c-4,0-7.3,0.9-9.8,2.9c-2.5,1.9-3.8,4.4-3.8,7.4c0,3,1,5.3,3,7s5.5,3.1,10.6,4.2
				c8.4,1.8,12.6,5.1,12.6,10.1c0,2.4-1.1,4.5-3.4,6.1c-2.3,1.7-5.2,2.5-8.9,2.5c-4,0-7.1-0.9-9.4-2.5c-2.3-1.6-3.6-3.8-3.8-6.8h-2
				c0,3,1.4,6,4.2,8.1c2.8,2.1,6.5,3.1,11,3.1c4.3,0,7.7-1,10.3-2.9s4-4.5,4-7.7c0-2.1-0.4-3.8-1.3-5.3
				C648.6,155.9,647.2,154.6,645.3,153.6z"/>
			<linearGradient id="SVGID_4_" gradientUnits="userSpaceOnUse" x1="663" y1="152.5" x2="665" y2="152.5">
				<stop  offset="0" style="stop-color:#C6F58E"/>
				<stop  offset="1" style="stop-color:#8BC34A"/>
			</linearGradient>
			<rect x="663" y="132" fill="url(#SVGID_4_)" width="2" height="41"/>
			<linearGradient id="SVGID_5_" gradientUnits="userSpaceOnUse" x1="661.4658" y1="119.0789" x2="665.6406" y2="119.0789">
				<stop  offset="0" style="stop-color:#C6F58E"/>
				<stop  offset="1" style="stop-color:#8BC34A"/>
			</linearGradient>
			<path fill="url(#SVGID_5_)" d="M663.5,117c-0.6,0-1.1,0.2-1.5,0.6c-0.4,0.4-0.6,0.9-0.6,1.5c0,0.6,0.2,1.1,0.6,1.5
				c0.4,0.4,0.9,0.6,1.5,0.6c0.6,0,1.1-0.2,1.5-0.6c0.4-0.4,0.6-0.9,0.6-1.5c0-0.6-0.2-1.1-0.6-1.5C664.6,117.2,664.1,117,663.5,117
				z"/>
			<linearGradient id="SVGID_6_" gradientUnits="userSpaceOnUse" x1="676" y1="159.9863" x2="707" y2="159.9863">
				<stop  offset="0" style="stop-color:#C6F58E"/>
				<stop  offset="1" style="stop-color:#8BC34A"/>
			</linearGradient>
			<path fill="url(#SVGID_6_)" d="M705,139.3c-1-2.7-3.3-4.7-5.6-6.1c-2.4-1.4-5-2.1-8.1-2.1c-4.8,0-8.5,1.8-11.2,5.5
				s-4.1,8.7-4.1,15.2v0.5c0,6.5,1.4,11.6,4.1,15.4c2.7,3.7,6.5,5.6,11.2,5.6c3,0,5.7-0.6,8.1-1.9c2.4-1.2,4.6-3,5.6-5.3v6.2
				c0,4.6-1.2,8.2-3.6,10.8c-2.3,2.5-5.6,3.8-9.8,3.8c-2.5,0-4.7-0.5-6.6-1.6c-1.9-1.1-3.6-2.6-5.2-4.6l-1.4,1.4
				c1.6,2.2,3.5,3.9,5.8,5.1c2.3,1.2,4.8,1.8,7.5,1.8c4.7,0,8.4-1.5,11.2-4.5c2.8-3,4.1-7.2,4.1-12.6V132h-2V139.3z M705,162.1
				c-1,2.9-2.7,5.1-5.1,6.7c-2.4,1.6-5.3,2.4-8.7,2.4c-4.2,0-7.4-1.7-9.7-5c-2.3-3.3-3.5-7.9-3.5-13.7c0-6.4,1.2-11.2,3.5-14.5
				c2.3-3.3,5.5-4.9,9.7-4.9c7,0,11.8,3.5,13.8,10.6V162.1z"/>
			<linearGradient id="SVGID_7_" gradientUnits="userSpaceOnUse" x1="720" y1="152.0298" x2="750" y2="152.0298">
				<stop  offset="0" style="stop-color:#C6F58E"/>
				<stop  offset="1" style="stop-color:#8BC34A"/>
			</linearGradient>
			<path fill="url(#SVGID_7_)" d="M736.6,131.1c-3.1,0-6.1,0.9-8.7,2.7s-4,4.3-6,7.5V132h-2v41h2v-26.5c1-3.9,2.7-7.1,5.3-9.6
				c2.6-2.5,5.7-3.7,9.2-3.7c3.8,0,6.9,1,8.6,3.1c1.8,2.1,2.9,5.3,2.9,9.7V173h2v-27c0-5-1.3-8.7-3.4-11.2
				C744.4,132.3,741,131.1,736.6,131.1z"/>
			<linearGradient id="SVGID_8_" gradientUnits="userSpaceOnUse" x1="759.9072" y1="152.1807" x2="789.4365" y2="152.1807">
				<stop  offset="0" style="stop-color:#C6F58E"/>
				<stop  offset="1" style="stop-color:#8BC34A"/>
			</linearGradient>
			<path fill="url(#SVGID_8_)" d="M788.1,157.3c-0.9-1.4-2.3-2.7-4.3-3.7c-2-1.1-4.6-2-8-2.7c-3.4-0.8-5.9-1.6-7.7-2.4
				c-1.8-0.8-3-1.8-3.8-2.8c-0.8-1-1.2-2.5-1.2-4.3c0-2.3,1-4.3,3.1-5.8c2.1-1.6,4.9-2.3,8.5-2.3c3.7,0,6.7,1.1,9,2.9
				c2.3,1.8,3.5,4,3.5,7h2.1c0-4-1.3-6.5-4-8.6s-6.2-3.2-10.6-3.2c-4,0-7.3,0.9-9.8,2.9c-2.5,1.9-3.8,4.4-3.8,7.4c0,3,1,5.3,3,7
				s5.5,3.1,10.6,4.2c8.4,1.8,12.6,5.1,12.6,10.1c0,2.4-1.1,4.5-3.4,6.1c-2.3,1.7-5.2,2.5-8.9,2.5c-4,0-7.1-0.9-9.4-2.5
				c-2.3-1.6-3.6-3.8-3.8-6.8h-2c0,3,1.4,6,4.2,8.1c2.8,2.1,6.5,3.1,11,3.1c4.3,0,7.7-1,10.3-2.9s4-4.5,4-7.7
				C789.4,160.5,789,158.7,788.1,157.3z"/>
		</g>
		<g>
			<linearGradient id="SVGID_9_" gradientUnits="userSpaceOnUse" x1="281.037" y1="61.8354" x2="281.037" y2="238.1646">
				<stop  offset="0" style="stop-color:#C6F58E"/>
				<stop  offset="1" style="stop-color:#8BC34A"/>
			</linearGradient>
			<path fill="url(#SVGID_9_)" d="M346.9,154c-1.9,1-3.9,1.8-6.1,2.2c0-0.2-0.1-0.4-0.1-0.6c-0.5-2.5-1.2-4.9-1.9-7.3
				c-0.7-2.4-1.5-4.8-2.5-7.2c-0.5-1.2-0.9-2.3-1.5-3.5c-0.3-0.6-0.5-1.2-0.8-1.7l-0.4-0.9l-0.2-0.4l-0.2-0.5l-2-3.9l-0.3,0.5
				c-0.1-1.1-0.2-2.2-0.4-3.2c-0.6-4-1.5-7.9-2.7-11.8c-0.6-1.9-1.3-3.8-2.1-5.7c-0.8-1.9-1.6-3.7-2.6-5.5l-0.4-0.7l-0.4-0.7
				l-0.4-0.7c-0.1-0.2-0.3-0.5-0.4-0.7l-0.8-1.2l-0.2-0.3l-0.2-0.3l-0.4-0.6c-1.1-1.7-2.4-3.3-3.6-4.9c-1.3-1.6-2.6-3-4-4.5
				c-1.4-1.4-2.8-2.8-4.3-4.2c-2.9-2.7-5.9-5.2-9-7.6c-3.1-2.4-6.3-4.7-9.6-6.9c-1.6-1.1-3.3-2.2-4.9-3.2c-0.8-0.5-1.7-1-2.5-1.5
				c-0.8-0.5-1.7-1-2.6-1.5l-5.8-3.3l2.8,6c0.2,0.4,0.4,0.9,0.6,1.4l0.6,1.4c0.4,1,0.8,1.9,1.2,2.9c0.4,1,0.8,2,1.2,2.9
				c0.4,1,0.8,2,1.1,3c0.4,1,0.7,2,1.1,3c0.3,1,0.7,2,1,3l0.5,1.5l0.5,1.5c0.3,1,0.6,2,0.9,3.1l0.1,0.4l0.1,0.4l0.2,0.8l0.4,1.5
				c0.3,1,0.5,2.1,0.8,3.1c0.3,1,0.5,2.1,0.8,3.1c0.2,1,0.5,2.1,0.7,3.1c0.2,1,0.6,2.1,0.8,3.1c0.2,0.9,0.7,1.9,0.7,2.8v0
				c0,0-0.1,0.1-0.1,0.1c-1.6-3.4-4.1-7.7-7.7-12.5c-7.7-10.1-19.9-16.8-20.1-17c0.2,0.2,5.4,6,10.4,18.7c3.9,8.7,5.2,16.7,5.4,18.4
				c-0.6,0.2-1.3,0.4-1.9,0.7c-1.7,0.6-3.3,1.3-5,2c0.4-0.1,0.8-0.3,1.3-0.4l1.3-0.4c0.8-0.3,1.7-0.5,2.6-0.8
				c0.9-0.2,1.7-0.5,2.6-0.7c0.4-0.1,0.9-0.2,1.3-0.3c0.4-0.1,0.9-0.2,1.3-0.2l0.6-0.1l0.6-0.1l0.2,0l0.2,0l0.3,0l0.7,0
				c0.4,0,0.9-0.1,1.3-0.1c0.4,0,0.9,0,1.3,0c0.4,0,0.9,0,1.3,0c0.4,0,0.9,0,1.3,0c0.4,0,0.9,0,1.3,0c0.4,0,0.9,0,1.3,0l1,0l-0.1-1
				c-0.1-1.1-0.2-2.1-0.3-3.2c-0.1-1.1-0.3-2.1-0.4-3.2c-0.1-1.1-0.3-2.1-0.5-3.2c-0.2-1.1-0.3-2.1-0.5-3.2
				c-0.2-1.1-0.4-2.1-0.5-3.2c-0.2-1.1-0.4-2.1-0.6-3.2c-0.2-1.1-0.4-2.1-0.6-3.2l-0.3-1.6l-0.2-0.8l-0.1-0.4l-0.1-0.4
				c-0.3-1-0.5-2.1-0.8-3.1l-0.4-1.6l-0.4-1.6c-0.3-1-0.6-2.1-0.9-3.1c-0.3-1-0.6-2.1-1-3.1c-0.3-1-0.7-2.1-1-3.1
				c-0.3-1-0.7-1.9-1-2.9c1.4,0.9,2.7,1.9,4.1,2.8c3.1,2.2,6.2,4.5,9.1,6.9c1.5,1.2,3,2.4,4.4,3.7c1.4,1.2,2.8,2.5,4.2,3.8
				c1.4,1.3,2.7,2.7,4,4c1.3,1.4,2.5,2.8,3.7,4.2c1.2,1.5,2.3,2.9,3.3,4.5l0.4,0.6l0.2,0.3l0.2,0.3l0.7,1.2c0.1,0.2,0.2,0.4,0.3,0.6
				l0.3,0.6l0.3,0.6l0.3,0.6c0.9,1.6,1.6,3.3,2.4,5c0.7,1.7,1.4,3.5,1.9,5.2c1.1,3.5,2,7.2,2.5,10.9c0.3,1.8,0.5,3.7,0.6,5.6
				c0.1,0.9,0.1,1.9,0.1,2.8c0,0.5,0,0.9,0,1.4l0,0.7l0,0.3l0,0.3l-0.5,10.7l5.3-9.1l0.1-0.1c0.3,0.8,0.7,1.5,1,2.3
				c0.9,2.2,1.7,4.5,2.5,6.7c0.7,2.3,1.4,4.6,2,6.9c0,0,0,0,0,0.1c-0.3,0-0.5,0-0.8,0c-5.7,0-12.2-1.5-19.9-4.7
				c-1.3-0.5-2.7-1.1-4-1.7c-8-3.4-16.2-6.9-24.5-7.2c3-4.3,3.6-9.9,1.2-14.2c-2.5-4.3-7.7-6.9-13.8-6.9c-1.5,0-3.1,0.2-4.6,0.5
				c-4.8,1.1-9,3.4-13.1,5.7c-1.3,0.7-2.7,1.5-4.1,2.2c-14,7.1-29.9,9.4-45.3,11.5l-1.7,0.2l0.1,1.7c0.4,6.9,6.4,12.1,12.2,14.1
				c5,1.8,10.3,1.9,15.4,2c0.9,0,1.7,0,2.6,0.1c15.7,0.6,31,3.9,45.5,9.8c1.5,0.6,3.1,1.3,4.6,1.9c4.9,2.1,9.9,4.3,15.3,5.5
				c2.6,0.6,5.2,0.9,7.8,0.9c5.3,0,10.1-1.3,13.8-3.9l3-2.1l-3.5-1.2c-1.5-0.5-3.1-0.9-4.7-1.3c7.2-0.1,14-1.8,20-4.7
				c0.3,1.9,0.4,3.8,0.6,5.7c0.1,2.4,0.2,4.8,0.1,7.2c-0.1,1.2-0.1,2.4-0.3,3.6c-0.1,0.6-0.1,1.2-0.2,1.8c-0.1,0.6-0.2,1.2-0.2,1.8
				c-0.3,2.4-0.8,4.7-1.5,7c-0.6,2.3-1.3,4.6-2.2,6.9c-0.9,2.2-1.9,4.5-2.9,6.6c-1.1,2.2-2.3,4.3-3.6,6.3c-1.3,2-2.7,4.1-4.2,6
				c-0.7,1-1.5,1.9-2.3,2.9c-0.8,0.9-1.6,1.9-2.4,2.8c-1.6,1.8-3.3,3.6-5.1,5.3c-1.8,1.7-3.6,3.3-5.5,4.9c-0.9,0.8-1.9,1.5-2.9,2.3
				c-1,0.7-2,1.5-3,2.1c2.2-1.2,4.2-2.5,6.2-4c2-1.4,4-2.9,5.9-4.5c1.9-1.6,3.7-3.3,5.5-5c1.8-1.7,3.5-3.6,5.1-5.5
				c1.6-1.9,3.1-3.9,4.6-5.9c1.4-2,2.8-4.2,4-6.3c2.5-4.4,4.5-9,6-13.8c0.7-2.4,1.3-4.9,1.8-7.4c0.1-0.6,0.2-1.3,0.3-1.9l0.3-1.8
				c0.2-1.3,0.3-2.5,0.4-3.8c0.2-2.5,0.3-5.1,0.2-7.6c-0.1-2.5-0.3-5.1-0.6-7.6c0-0.1,0-0.1,0-0.2c2.7-1.7,5.2-3.8,7.2-6.1l7.1-7.9
				L346.9,154z M337.3,161.4c-5.9,3.1-12.9,4.8-20.3,4.8c-5.4,0-10.7-0.9-15.3-2.7l-9.6-3.7l7.8,6.8c4.3,3.8,10.3,5.2,15.6,6.4
				c0.6,0.1,1.1,0.3,1.6,0.4c-2.3,0.8-4.9,1.3-7.8,1.3c-2.3,0-4.6-0.3-7-0.8c-5-1.1-9.9-3.2-14.6-5.3c-1.5-0.7-3.1-1.3-4.6-2
				c-14.9-6.1-30.6-9.5-46.8-10.1c-0.9,0-1.8-0.1-2.6-0.1c-4.8-0.1-9.8-0.3-14.3-1.8c-1.9-0.7-3.9-1.7-5.5-3.1
				c0.4-0.1,0.7-0.3,1-0.5c2.6-1.5,4.6-4.2,5.2-7.2c11.7-1.9,23.5-4.6,34.3-10.1c1.4-0.7,2.8-1.5,4.2-2.2c4.1-2.2,7.9-4.3,12.2-5.3
				c1.2-0.3,2.5-0.4,3.8-0.4c4.8,0,8.8,1.9,10.6,5.1c2.2,3.9,0.7,9.6-3.5,12.9l-5.1,4l6.4-0.7c0.9-0.1,1.8-0.2,2.8-0.2
				c7.9,0,16.3,3.5,24.4,7c1.3,0.6,2.7,1.1,4,1.7c8.2,3.4,15.1,5,21.3,5c0.5,0,1,0,1.6,0c0.9,0,1.7-0.1,2.5-0.2
				C338.8,160.5,338.1,161,337.3,161.4z"/>
			<linearGradient id="SVGID_10_" gradientUnits="userSpaceOnUse" x1="264.0465" y1="132.7861" x2="264.0465" y2="140.6828">
				<stop  offset="0" style="stop-color:#C6F58E"/>
				<stop  offset="1" style="stop-color:#8BC34A"/>
			</linearGradient>
			<path fill="url(#SVGID_10_)" d="M273.2,132.8c-3.5-0.1-7.1,0.2-10.4,1.4c-3.3,1.2-6.3,3.4-8,6.5
				C261.8,141.1,268.8,138.1,273.2,132.8z"/>
			<linearGradient id="SVGID_11_" gradientUnits="userSpaceOnUse" x1="222.7851" y1="150.7678" x2="222.7851" y2="152.9768">
				<stop  offset="0" style="stop-color:#C6F58E"/>
				<stop  offset="1" style="stop-color:#8BC34A"/>
			</linearGradient>
			<circle fill="url(#SVGID_11_)" cx="222.8" cy="151.9" r="1.1"/>
			<linearGradient id="SVGID_12_" gradientUnits="userSpaceOnUse" x1="226.6686" y1="147.1693" x2="226.6686" y2="149.4495">
				<stop  offset="0" style="stop-color:#C6F58E"/>
				<stop  offset="1" style="stop-color:#8BC34A"/>
			</linearGradient>
			<circle fill="url(#SVGID_12_)" cx="226.7" cy="148.3" r="1.1"/>
			<linearGradient id="SVGID_13_" gradientUnits="userSpaceOnUse" x1="229.6792" y1="151.516" x2="229.6792" y2="153.7606">
				<stop  offset="0" style="stop-color:#C6F58E"/>
				<stop  offset="1" style="stop-color:#8BC34A"/>
			</linearGradient>
			<circle fill="url(#SVGID_13_)" cx="229.7" cy="152.6" r="1.1"/>
			<linearGradient id="SVGID_14_" gradientUnits="userSpaceOnUse" x1="252.3874" y1="139.7764" x2="252.3874" y2="146.535">
				<stop  offset="0" style="stop-color:#C6F58E"/>
				<stop  offset="1" style="stop-color:#8BC34A"/>
			</linearGradient>
			<path fill="url(#SVGID_14_)" d="M274.8,140.2c-0.2,0.3-0.6,0.6-1.1,1c-0.5,0.4-1.2,0.8-2,1.2c-0.4,0.2-0.8,0.4-1.3,0.6
				c-0.2,0.1-0.5,0.2-0.7,0.3c-0.2,0.1-0.5,0.2-0.8,0.2c-0.5,0.2-1.1,0.3-1.6,0.4c-0.6,0.1-1.2,0.3-1.8,0.4
				c-1.2,0.2-2.5,0.3-3.9,0.4c-1.3,0.1-2.7,0-4.2,0c-0.7,0-1.4-0.1-2.2-0.1c-0.7,0-1.5-0.1-2.2-0.1c-1.5-0.1-2.9-0.2-4.4-0.3
				c-1.4-0.1-2.9-0.2-4.3-0.2c-1.4,0-2.7-0.1-4,0c-0.6,0-1.3,0-1.9,0.1c-0.6,0-1.2,0.1-1.7,0.1c-0.3,0-0.5,0.1-0.8,0.1
				c-0.3,0-0.5,0.1-0.8,0.1c-0.5,0.1-1,0.1-1.4,0.2c-0.4,0.1-0.9,0.2-1.2,0.2c-0.4,0.1-0.7,0.2-1,0.3c-0.6,0.1-1.1,0.3-1.4,0.4
				c-0.3,0.1-0.5,0.2-0.5,0.2s0.2,0,0.5-0.1c0.2,0,0.4,0,0.6-0.1c0.3,0,0.5,0,0.9-0.1c0.3,0,0.7-0.1,1.1-0.1c0.4,0,0.8-0.1,1.2-0.1
				c0.4,0,0.9,0,1.4,0c0.2,0,0.5,0,0.8,0c0.3,0,0.5,0,0.8,0c1.1,0,2.3,0.1,3.5,0.1c1.3,0.1,2.6,0.2,3.9,0.3c0.7,0.1,1.4,0.1,2.1,0.2
				c0.7,0.1,1.4,0.1,2.1,0.2c1.5,0.1,2.9,0.2,4.4,0.3c0.7,0,1.5,0.1,2.2,0.1c0.7,0,1.5,0.1,2.2,0.1c1.5,0,2.9,0,4.3-0.2
				c1.4-0.1,2.8-0.4,4-0.8c1.3-0.3,2.4-0.8,3.4-1.3c0.3-0.1,0.5-0.2,0.7-0.4c0.2-0.1,0.5-0.2,0.7-0.4c0.5-0.2,0.9-0.5,1.3-0.7
				c0.8-0.5,1.4-1,1.9-1.5C274.3,141,274.7,140.6,274.8,140.2c0.2-0.1,0.2-0.2,0.2-0.3c0-0.1,0-0.1,0-0.1s0,0-0.1,0.1
				C274.9,140,274.9,140.1,274.8,140.2z"/>
			<linearGradient id="SVGID_15_" gradientUnits="userSpaceOnUse" x1="308.2918" y1="86.744" x2="308.2918" y2="133.0576">
				<stop  offset="0" style="stop-color:#C6F58E"/>
				<stop  offset="1" style="stop-color:#8BC34A"/>
			</linearGradient>
			<path fill="url(#SVGID_15_)" d="M298.3,105.5c0.2,0.1,0.4,0.2,0.7,0.3c0.2,0.1,0.4,0.2,0.6,0.4c0.2,0.1,0.4,0.3,0.6,0.4
				c0.2,0.1,0.4,0.3,0.6,0.5c0.2,0.2,0.4,0.3,0.6,0.5c0.2,0.2,0.4,0.3,0.6,0.5c0.2,0.2,0.4,0.4,0.5,0.5c0.2,0.2,0.4,0.4,0.5,0.6
				c0.2,0.2,0.3,0.4,0.5,0.6c0.2,0.2,0.3,0.4,0.5,0.6c0.2,0.2,0.3,0.4,0.5,0.6l1,1.2c-0.3-0.5-0.5-0.9-0.8-1.3
				c-0.1-0.2-0.3-0.4-0.4-0.7c-0.1-0.2-0.3-0.4-0.4-0.7c-0.1-0.2-0.3-0.4-0.4-0.6c-0.1-0.2-0.3-0.4-0.5-0.6
				c-0.2-0.2-0.3-0.4-0.5-0.6c-0.2-0.2-0.3-0.4-0.5-0.6c-0.2-0.2-0.4-0.4-0.5-0.6c-0.2-0.2-0.4-0.4-0.6-0.5
				c-0.2-0.2-0.4-0.3-0.6-0.5c-0.2-0.2-0.4-0.3-0.7-0.5c-0.2-0.2-0.5-0.3-0.7-0.4c-0.2-0.1-0.5-0.2-0.7-0.4
				c-0.3-0.1-0.5-0.2-0.8-0.3l-0.8-0.2l-1-0.3l0.2,1.1l0.4,2.7l0.4,2.7c0.3,1.8,0.6,3.6,0.9,5.4l0.1,0.6l0.6,0.2
				c1,0.4,1.9,0.8,2.9,1.1c0.5,0.2,1,0.4,1.4,0.6c0.5,0.2,1,0.4,1.4,0.6c0.5,0.2,0.9,0.4,1.4,0.6c0.5,0.2,0.9,0.4,1.4,0.6
				c0.5,0.2,0.9,0.4,1.4,0.7c0.5,0.2,0.9,0.5,1.3,0.7c0.4,0.2,0.9,0.5,1.3,0.7c0.4,0.2,0.9,0.5,1.3,0.8c0.2,0.1,0.4,0.3,0.6,0.4
				l0.6,0.4c0.4,0.3,0.8,0.6,1.2,0.9c0.4,0.3,0.8,0.6,1.1,1c0.4,0.3,0.7,0.7,1.1,1l1,1.1l1,1.1l4.2,4.7l-1.8-6l-0.9-3l-1-2.9
				l-1.1-2.9c-0.4-1-0.8-1.9-1.2-2.9l-1.3-2.8c-0.5-0.9-1-1.8-1.4-2.8l-1.5-2.7l-1.7-2.6c-0.6-0.9-1.2-1.7-1.8-2.6l-1.9-2.5l-2-2.4
				l-2.1-2.3l-2.2-2.2c-0.8-0.7-1.5-1.4-2.3-2.1l-2.4-1.9c-0.8-0.6-1.7-1.2-2.5-1.8c0.7,0.7,1.5,1.4,2.2,2.1l2.1,2.2
				c0.7,0.8,1.4,1.5,2,2.3l2,2.3L304,98l1.8,2.5l1.7,2.5l1.6,2.6l1.5,2.6l1.4,2.7l1.3,2.7l1.2,2.8l1.1,2.8l1,2.8l0.2,0.6
				c-0.2-0.2-0.5-0.4-0.7-0.6c-0.4-0.3-0.9-0.7-1.3-1l-0.7-0.5c-0.2-0.2-0.5-0.3-0.7-0.4c-0.5-0.3-0.9-0.6-1.4-0.8
				c-0.5-0.3-0.9-0.5-1.4-0.8c-0.5-0.2-1-0.5-1.4-0.7c-0.5-0.2-1-0.5-1.5-0.7c-0.5-0.2-1-0.4-1.5-0.6c-0.5-0.2-1-0.4-1.5-0.6
				c-0.5-0.2-1-0.4-1.5-0.5c-0.5-0.2-1-0.4-1.5-0.5c-0.8-0.3-1.6-0.5-2.4-0.8c-0.3-1.6-0.7-3.2-1.1-4.7l-0.6-2.7l-0.4-1.6l0.3,0.1
				C297.8,105.3,298.1,105.4,298.3,105.5z"/>
			<linearGradient id="SVGID_16_" gradientUnits="userSpaceOnUse" x1="265.1474" y1="174.6745" x2="265.1474" y2="191.7716">
				<stop  offset="0" style="stop-color:#C6F58E"/>
				<stop  offset="1" style="stop-color:#8BC34A"/>
			</linearGradient>
			<path fill="url(#SVGID_16_)" d="M283,176c-0.4,0.4-1,0.9-1.6,1.4c-0.6,0.5-1.3,1.1-2.1,1.7c-0.2,0.2-0.4,0.3-0.6,0.5
				c-0.2,0.2-0.4,0.3-0.7,0.4c-0.4,0.3-0.9,0.6-1.4,0.9c-0.5,0.3-1,0.6-1.5,0.9c-0.5,0.3-1,0.6-1.6,0.9c-0.5,0.3-1.1,0.6-1.7,0.9
				c-0.3,0.1-0.6,0.3-0.9,0.4c-0.3,0.1-0.6,0.3-0.9,0.4c-0.3,0.1-0.6,0.3-0.9,0.4c-0.3,0.1-0.6,0.3-0.9,0.4
				c-0.6,0.3-1.2,0.5-1.8,0.7c-0.6,0.2-1.2,0.5-1.9,0.7c-0.6,0.2-1.2,0.4-1.9,0.6c-1.2,0.4-2.5,0.8-3.7,1.1
				c-0.6,0.2-1.2,0.3-1.8,0.5c-0.6,0.1-1.2,0.3-1.7,0.4c-0.6,0.1-1.1,0.3-1.6,0.4c-0.5,0.1-1,0.2-1.5,0.4c-2,0.4-3.6,0.8-4.8,1
				c-0.6,0.1-1,0.2-1.4,0.3c-0.3,0.1-0.5,0.1-0.5,0.1s0.2,0,0.5,0.1c0.3,0,0.8,0.1,1.4,0.1c0.6,0,1.3,0.1,2.2,0.1c0.4,0,0.9,0,1.3,0
				c0.5,0,1,0,1.5,0c1,0,2.1-0.1,3.3-0.3c0.6-0.1,1.2-0.2,1.8-0.2c0.3-0.1,0.6-0.1,0.9-0.2c0.3-0.1,0.6-0.1,0.9-0.2
				c0.3-0.1,0.6-0.1,1-0.2c0.3-0.1,0.6-0.2,1-0.2c0.3-0.1,0.7-0.2,1-0.2c0.3-0.1,0.7-0.2,1-0.3c0.3-0.1,0.7-0.2,1-0.3
				c0.3-0.1,0.7-0.2,1-0.3c0.7-0.2,1.3-0.5,2-0.7c0.6-0.3,1.3-0.5,1.9-0.8c0.3-0.1,0.6-0.3,0.9-0.4c0.3-0.1,0.6-0.3,0.9-0.5
				c0.3-0.2,0.6-0.3,0.9-0.5c0.3-0.2,0.6-0.3,0.9-0.5c0.6-0.3,1.1-0.7,1.7-1c0.6-0.3,1.1-0.7,1.6-1.1c0.3-0.2,0.5-0.4,0.7-0.6
				c0.2-0.2,0.5-0.4,0.7-0.6c0.5-0.4,0.9-0.8,1.3-1.2c0.2-0.2,0.4-0.4,0.6-0.6c0.2-0.2,0.4-0.4,0.6-0.6c0.7-0.7,1.3-1.5,1.8-2.2
				c0.3-0.3,0.5-0.7,0.7-1c0.2-0.3,0.4-0.6,0.6-0.8c0.3-0.5,0.5-0.9,0.7-1.2c0.2-0.3,0.2-0.4,0.2-0.4s-0.1,0.1-0.4,0.3
				C283.8,175.2,283.4,175.6,283,176z"/>
			<linearGradient id="SVGID_17_" gradientUnits="userSpaceOnUse" x1="308.7562" y1="183.7242" x2="308.7562" y2="215.2198">
				<stop  offset="0" style="stop-color:#C6F58E"/>
				<stop  offset="1" style="stop-color:#8BC34A"/>
			</linearGradient>
			<path fill="url(#SVGID_17_)" d="M304.6,211.8c0.2-0.1,0.4-0.3,0.7-0.4c0.2-0.2,0.4-0.3,0.7-0.5c0.5-0.3,0.9-0.7,1.4-1
				c0.2-0.2,0.5-0.4,0.7-0.6c0.2-0.2,0.5-0.4,0.7-0.6c0.2-0.2,0.5-0.4,0.7-0.6c0.1-0.1,0.2-0.2,0.3-0.3l0.3-0.3
				c0.4-0.4,0.9-0.9,1.3-1.4c0.4-0.5,0.9-1,1.3-1.5c0.2-0.3,0.4-0.5,0.6-0.8l0.6-0.8c0.8-1.1,1.5-2.2,2.1-3.3
				c0.3-0.6,0.6-1.1,0.9-1.7c0.1-0.3,0.3-0.6,0.4-0.8c0.1-0.3,0.2-0.6,0.4-0.8c0.5-1.1,0.9-2.2,1.2-3.3c0.3-1.1,0.6-2.1,0.8-3
				c0.2-1,0.3-1.8,0.4-2.6c0.1-0.8,0.1-1.5,0.1-2c0-0.6,0-1,0-1.3c0-0.3,0-0.5,0-0.5s0,0.2-0.1,0.4c-0.1,0.3-0.2,0.7-0.4,1.2
				c-0.2,0.5-0.4,1.2-0.6,1.9c-0.2,0.7-0.5,1.5-0.9,2.4c-0.2,0.4-0.3,0.9-0.6,1.3c-0.2,0.5-0.4,0.9-0.6,1.4c-0.4,1-0.9,2-1.5,3
				c-0.3,0.5-0.6,1-0.8,1.5c-0.1,0.3-0.3,0.5-0.5,0.8c-0.2,0.3-0.3,0.5-0.5,0.8c-0.6,1-1.3,2-2,3l-0.5,0.7c-0.2,0.2-0.4,0.5-0.6,0.7
				c-0.2,0.2-0.4,0.5-0.6,0.7c-0.2,0.2-0.4,0.5-0.6,0.7c-0.8,0.9-1.6,1.8-2.4,2.6c-0.4,0.4-0.8,0.8-1.2,1.2
				c-0.2,0.2-0.4,0.4-0.6,0.6c-0.2,0.2-0.4,0.4-0.6,0.5c-0.2,0.2-0.4,0.4-0.6,0.5c-0.2,0.2-0.4,0.3-0.6,0.5c-0.4,0.3-0.7,0.7-1.1,1
				c-0.4,0.3-0.7,0.6-1,0.9c-0.2,0.1-0.3,0.3-0.5,0.4c-0.2,0.1-0.3,0.2-0.5,0.4c-0.6,0.5-1.1,0.9-1.6,1.2c-0.4,0.3-0.8,0.6-1,0.8
				c-0.2,0.2-0.4,0.3-0.4,0.3s0.2-0.1,0.4-0.1c0.3-0.1,0.7-0.2,1.2-0.4c0.1,0,0.3-0.1,0.4-0.2c0.1-0.1,0.3-0.1,0.4-0.2
				c0.3-0.1,0.6-0.3,1-0.4c0.2-0.1,0.4-0.2,0.6-0.3c0.2-0.1,0.4-0.2,0.6-0.3c0.4-0.2,0.8-0.4,1.2-0.7
				C303.7,212.4,304.2,212.1,304.6,211.8z"/>
		</g>
	</g>
</g>
</svg>
